<svg width="25" height="25" fill="none" xmlns="http://www.w3.org/2000/svg"><path fill-rule="evenodd" clip-rule="evenodd" d="M0 12.5C0 5.596 5.596 0 12.5 0S25 5.596 25 12.5 19.404 25 12.5 25 0 19.404 0 12.5Zm6.406-2.11v8.36h2.657v-8.36H6.405ZM6.25 7.735c0 .86.625 1.485 1.484 1.485.86 0 1.485-.625 1.485-1.485 0-.859-.625-1.484-1.485-1.484-.78 0-1.484.625-1.484 1.484Zm9.844 11.016h2.5v-5.156c0-2.578-1.563-3.438-3.047-3.438-1.328 0-2.266.86-2.5 1.406v-1.171h-2.5v8.359h2.656v-4.453c0-1.172.781-1.797 1.563-1.797.78 0 1.328.39 1.328 1.719v4.531Z" fill="#78A"/></svg>