<svg width="25" height="25" fill="none" xmlns="http://www.w3.org/2000/svg"><path fill-rule="evenodd" clip-rule="evenodd" d="M12.5 0C5.594 0 0 5.735 0 12.816c0 5.671 3.578 10.461 8.547 12.16.625.112.86-.273.86-.61 0-.304-.016-1.313-.016-2.386-3.141.593-3.954-.785-4.204-1.506-.14-.369-.75-1.506-1.28-1.81-.438-.24-1.063-.834-.016-.85.984-.015 1.687.93 1.921 1.314 1.125 1.939 2.922 1.394 3.641 1.058.11-.834.438-1.394.797-1.715-2.781-.32-5.688-1.425-5.688-6.328 0-1.393.485-2.547 1.282-3.444-.125-.32-.563-1.634.125-3.396 0 0 1.047-.337 3.437 1.313 1-.288 2.063-.432 3.125-.432 1.063 0 2.125.144 3.125.432 2.39-1.666 3.438-1.313 3.438-1.313.687 1.762.25 3.076.125 3.396.797.897 1.281 2.034 1.281 3.444 0 4.918-2.922 6.008-5.703 6.328.453.4.844 1.17.844 2.371 0 1.715-.016 3.092-.016 3.525 0 .336.234.737.86.608C21.421 23.277 25 18.471 25 12.816 25 5.736 19.406 0 12.5 0Z" fill="#78A"/></svg>