<svg width="18" height="18" fill="none" xmlns="http://www.w3.org/2000/svg"><path fill-rule="evenodd" clip-rule="evenodd" d="M0 9a9 9 0 1 1 18 0A9 9 0 0 1 0 9Zm4.612-1.519V13.5h1.913V7.481H4.612ZM4.5 5.57c0 .619.45 1.069 1.069 1.069s1.069-.45 1.069-1.07c0-.618-.45-1.068-1.07-1.068-.562 0-1.068.45-1.068 1.069Zm7.088 7.931h1.8V9.787c0-1.856-1.126-2.475-2.194-2.475-.957 0-1.632.62-1.8 1.013v-.844h-1.8V13.5h1.912v-3.206C9.506 9.45 10.07 9 10.631 9c.563 0 .957.281.957 1.238V13.5Z" fill="#7EFFD1"/></svg>