<svg width="18" height="18" fill="none" xmlns="http://www.w3.org/2000/svg"><path fill-rule="evenodd" clip-rule="evenodd" d="M9 0C4.027 0 0 4.13 0 9.228c0 4.083 2.576 7.532 6.154 8.754.45.081.619-.196.619-.438 0-.22-.012-.946-.012-1.719-2.261.427-2.846-.565-3.026-1.084-.101-.265-.54-1.084-.922-1.303-.316-.173-.766-.6-.012-.612.709-.011 1.215.67 1.384.946.81 1.396 2.104 1.004 2.621.761.079-.6.315-1.003.574-1.234-2.002-.23-4.095-1.026-4.095-4.556 0-1.003.349-1.834.922-2.48-.09-.23-.404-1.176.09-2.445 0 0 .754-.242 2.476.946a8.158 8.158 0 0 1 2.25-.312c.764 0 1.53.104 2.25.312 1.72-1.2 2.475-.946 2.475-.946.495 1.269.18 2.215.09 2.445.573.646.922 1.465.922 2.48 0 3.541-2.104 4.326-4.106 4.556.326.289.607.842.607 1.708 0 1.234-.011 2.226-.011 2.537 0 .242.169.53.619.438C15.424 16.76 18 13.3 18 9.228 18 4.129 13.973 0 9 0Z" fill="#7EFFD1"/></svg>